#!OML:ASF H:\ManfredETheater\Project 1\Capture day 1\Session 1\subject.ASF
:FULLY-SPECIFIED
:DEGREES
177
root -2.43776 16.9268 -34.8615 -154.26 -29.8407 179.285
lowerback 14.7935 5.08936 -0.799008
upperback 0.235164 6.28161 -2.69904
thorax -7.79958 2.97421 -3.75361
lowerneck -9.65011 -10.5479 -8.18918
upperneck -16.1955 -13.7138 12.972
head -1.78487 -7.4102 4.95197
rclavicle 1.15295e-014 -9.93923e-015
rhumerus -4.22096 7.72762 -75.7087
rradius 72.5636
rwrist -4.5537
rhand -27.3637 -3.3818
rfingers 7.12502
rthumb -0.771332 -33.3601
lclavicle 1.15295e-014 -9.93923e-015
lhumerus -73.4005 5.70033 76.6367
lradius 100.965
lwrist 9.17479
lhand -32.6655 -18.2451
lfingers 7.12502
lthumb -5.89128 11.653
rfemur 10.8351 -0.820515 32.5507
rtibia 42.2783
rfoot 27.1343 6.00935
rtoes -17.1551
lfemur -73.0373 1.46461 -27.4936
ltibia 38.4777
lfoot 18.9104 -13.4805
ltoes 36.2831
178
root -2.62451 16.8884 -35.3946 -155.374 -28.3409 180.474
lowerback 14.5726 5.56288 -0.519962
upperback 0.406727 7.00112 -2.29963
thorax -7.47258 3.33109 -3.59231
lowerneck -9.72026 -10.3646 -8.41434
upperneck -16.1164 -13.4911 12.4712
head -1.80368 -7.26725 4.84684
rclavicle 6.2816e-014 -3.57812e-015
rhumerus -5.00316 7.10891 -76.3136
rradius 68.8402
rwrist -6.11217
rhand -27.6791 -3.90417
rfingers 7.12502
rthumb -1.07594 -33.8812
lclavicle 6.2816e-014 -3.57812e-015
lhumerus -72.1597 6.91216 77.5748
lradius 101.021
lwrist 9.02979
lhand -32.4832 -18.1742
lfingers 7.12502
lthumb -5.71525 11.7287
rfemur 9.87793 -0.265776 32.4878
rtibia 48.0286
rfoot 25.651 5.86311
rtoes -18.922
lfemur -72.5384 1.87196 -25.8978
ltibia 37.3662
lfoot 22.3065 -12.7505
ltoes 36.7098
179
root -2.80421 16.8312 -35.9252 -156.402 -27.0477 181.487
lowerback 14.4818 5.90273 -0.265628
upperback 0.484175 7.53093 -1.91418
thorax -7.33326 3.59153 -3.41351
lowerneck -9.67074 -10.1417 -8.54141
upperneck -15.9153 -13.2182 11.9667
head -1.81367 -7.09777 4.72875
rclavicle 9.30312e-014 -5.1684e-014
rhumerus -5.81271 6.46795 -77.0004
rradius 64.8633
rwrist -7.38655
rhand -26.5036 -4.59315
rfingers 7.12502
rthumb 0.0593468 -34.5729
lclavicle 9.30312e-014 -5.1684e-014
lhumerus -71.0293 8.03735 78.4337
lradius 101.105
lwrist 8.87295
lhand -32.2574 -18.2984
lfingers 7.12502
lthumb -5.4973 11.6103
rfemur 8.77347 0.087854 32.4985
rtibia 53.7508
rfoot 24.3771 4.83978
rtoes -19.8135
lfemur -72.0747 2.17242 -24.4011
ltibia 37.2571
lfoot 25.2562 -12.0983
ltoes 37.8463
180
root -2.98923 16.7711 -36.4657 -157.427 -25.8841 182.316
lowerback 14.3973 6.13245 0.0317937
upperback 0.524903 7.91128 -1.62024
thorax -7.22706 3.77509 -3.32736
lowerneck -9.53448 -9.86332 -8.42403
upperneck -15.5734 -12.8843 11.4183
head -1.81655 -6.90124 4.56164
rclavicle -7.71285e-014 -1.27222e-014
rhumerus -6.6996 5.79897 -77.8131
rradius 60.5919
rwrist -8.17332
rhand -26.3649 -5.05604
rfingers 7.12502
rthumb 0.193356 -35.0357
lclavicle -7.71285e-014 -1.27222e-014
lhumerus -69.9192 8.94763 79.1198
lradius 101.204
lwrist 8.76115
lhand -31.9068 -18.4313
lfingers 7.12502
lthumb -5.15878 11.4859
rfemur 7.7402 0.200709 32.3659
rtibia 59.2585
rfoot 23.1312 3.07904
rtoes -19.7338
lfemur -71.5582 2.82464 -23.9214
ltibia 38.1264
lfoot 25.0632 -13.5547
ltoes 41.102
181
root -3.18459 16.6813 -37.0132 -158.232 -25.0336 182.499
lowerback 14.1343 6.17514 0.0968656
upperback 0.593274 7.99223 -1.48017
thorax -7.01554 3.82121 -3.19338
lowerneck -9.24103 -9.5759 -8.15695
upperneck -15.1915 -12.544 10.9011
head -1.83471 -6.70739 4.38641
rclavicle 6.24184e-014 -2.38542e-014
rhumerus -7.80054 5.01056 -78.7126
rradius 56.3021
rwrist -8.36262
rhand -25.2209 -5.76293
rfingers 7.12502
rthumb 1.29818 -35.7387
lclavicle 6.24184e-014 -2.38542e-014
lhumerus -68.8457 9.5223 79.7532
lradius 101.396
lwrist 8.78275
lhand -31.6125 -18.4268
lfingers 7.12502
lthumb -4.87461 11.4971
rfemur 6.86691 -0.159126 31.7488
rtibia 64.5553
rfoot 21.4664 0.858381
rtoes -18.4881
lfemur -71.1033 3.14846 -24.1786
ltibia 40.5006
lfoot 19.5388 -16.6068
ltoes 40.8546
182
root -3.3637 16.5707 -37.5501 -159.313 -24.4096 182.73
lowerback 14.51 6.14118 0.328402
upperback 0.512769 7.98897 -1.38469
thorax -7.29282 3.80402 -3.27105
lowerneck -8.8606 -9.32671 -7.76083
upperneck -14.6244 -12.2395 10.5034
head -1.80203 -6.53046 4.21891
rclavicle 8.0309e-014 3.77691e-014
rhumerus -9.36872 3.84709 -79.7854
rradius 52.155
rwrist -7.93869
rhand -24.0873 -6.36022
rfingers 7.12502
rthumb 2.3931 -36.3265
lclavicle 8.0309e-014 3.77691e-014
lhumerus -67.9566 9.66413 79.9835
lradius 101.445
lwrist 8.3962
lhand -30.7615 -19.0963
lfingers 7.12502
lthumb -4.05281 10.8449
rfemur 6.21166 -0.875266 31.3428
rtibia 69.6035
rfoot 19.3317 -1.40337
rtoes -19.3924
lfemur -70.2475 3.51848 -24.4494
ltibia 44.0464
lfoot 9.96886 -13.0452
ltoes 37.1957
183
root -3.52581 16.506 -38.0551 -160.18 -24.4097 182.589
lowerback 15.4978 5.82006 0.648027
upperback 0.339648 7.61499 -1.338
thorax -8.01131 3.58519 -3.45295
lowerneck -8.87684 -9.1378 -7.49215
upperneck -13.5839 -12.0351 9.94089
head -1.77545 -6.36683 4.36327
rclavicle -6.16232e-015 4.92986e-014
rhumerus -11.0769 2.44341 -80.7519
rradius 48.3879
rwrist -7.16026
rhand -22.8686 -6.80066
rfingers 7.12502
rthumb 3.57001 -36.7505
lclavicle -6.16232e-015 4.92986e-014
lhumerus -66.7385 9.73174 80.4577
lradius 101.592
lwrist 8.65608
lhand -30.1903 -19.2649
lfingers 7.12502
lthumb -3.50123 10.6861
rfemur 4.99209 -2.23969 30.791
rtibia 74.5979
rfoot 17.4186 -3.34475
rtoes -18.5839
lfemur -69.2885 2.64088 -23.4843
ltibia 48.4614
lfoot 1.82887 -13.4946
ltoes 16.4569
184
root -3.66023 16.4472 -38.5509 -160.63 -24.5001 180.568
lowerback 17.0204 5.48494 -0.746705
upperback 0.407892 6.8339 -1.60452
thorax -8.9588 3.21312 -2.96373
lowerneck -9.02847 -9.02022 -7.43802
upperneck -12.927 -11.851 9.85727
head -1.5506 -6.24628 4.29113
rclavicle 1.68967e-014 -2.5842e-014
rhumerus -12.6748 0.582403 -81.5047
rradius 44.8203
rwrist -5.99372
rhand -21.9706 -6.52384
rfingers 7.12502
rthumb 4.43715 -36.4574
lclavicle 1.68967e-014 -2.5842e-014
lhumerus -65.2078 9.31433 81.1656
lradius 101.927
lwrist 9.13325
lhand -29.68 -18.8234
lfingers 7.12502
lthumb -3.0084 11.1351
rfemur 3.85186 -4.30081 28.2762
rtibia 79.6148
rfoot 15.494 -3.96351
rtoes -18.8729
lfemur -68.6512 0.536133 -23.6053
ltibia 52.871
lfoot -1.64988 -11.8059
ltoes 9.27407
185
root -3.78768 16.3899 -39.0349 -160.538 -24.4935 177.416
lowerback 18.4195 5.27648 -2.93582
upperback 0.571948 5.94664 -2.17991
thorax -9.7552 2.82421 -2.28075
lowerneck -9.11153 -9.03434 -7.63076
upperneck -12.4478 -11.8263 9.95266
head -1.35783 -6.20702 4.33075
rclavicle -1.23644e-013 1.90833e-014
rhumerus -14.4473 -1.88426 -81.9461
rradius 41.8048
rwrist -4.94705
rhand -21.1631 -6.07046
rfingers 7.12502
rthumb 5.21682 -35.9862
lclavicle -1.23644e-013 1.90833e-014
lhumerus -63.4143 8.42326 81.994
lradius 102.269
lwrist 9.82808
lhand -29.1205 -19.1159
lfingers 7.12502
lthumb -2.46804 10.8496
rfemur 2.33615 -6.7286 24.1833
rtibia 84.6513
rfoot 13.5384 -3.31181
rtoes -19.3566
lfemur -67.3349 -1.56015 -25.148
ltibia 56.4871
lfoot -4.82669 -10.9166
ltoes 5.59897
